<?xml version="1.0" encoding="UTF-8"?>
<svg width="595" height="704" viewBox="0 0 595 704" xmlns="http://www.w3.org/2000/svg">
    <g>
        <path
            d="m200.78 502.83c53.451 53.404 140.12 53.404 193.58 0 53.457-53.404 53.457-139.99 0-193.4-53.458-53.405-140.12-53.402-193.58 6e-3 -53.454 53.402-53.456 139.99 4e-3 193.39zm152.1-151.96c30.548 30.521 30.548 80 0 110.52-30.545 30.522-80.068 30.522-110.62 0-30.547-30.515-30.547-79.994 0-110.52 30.548-30.516 80.071-30.516 110.62 0z"
            fill="#94C123" />
        <path
            d="m270.22 378.79c15.104-15.091 39.598-15.091 54.707 0 15.105 15.097 15.105 39.565 0 54.657-15.108 15.091-39.601 15.097-54.707 0-15.109-15.095-15.106-39.56 0-54.657z"
            fill="#069339" />
        <path
            d="m104.11 406.13c0.288-52.192 23.64-99.193 60.882-132.4l-77.365-77.31c-53.913 53.624-87.354 127.76-87.62 209.71h104.1z"
            fill="#0C3857" />
        <path
            d="m104.09 407.1c0-0.324 0.023-0.646 0.026-0.972h-104.1c0 0.324-0.011 0.646-0.011 0.972 0 81.84 33.107 155.95 86.664 209.71l77.324-77.256c-36.885-33.359-59.9-80.348-59.9-132.46z"
            fill="#B2B2B2" />
        <path
            d="m491.02 406.12c0 0.327 0.028 0.648 0.028 0.977 0 101.17-86.627 183.19-193.48 183.19-51.819 0-98.847-19.33-133.58-50.739l-77.324 77.258c53.888 54.088 128.48 87.574 210.9 87.574 164.35 0 297.57-133.1 297.57-297.28 0-0.326-0.012-0.647-0.012-0.973l-104.1-4e-3z"
            fill="#EF7E08" />
        <rect x="491.02" width="104.1" height="406.13" fill="#069339" />
    </g>
</svg>
