<svg width="595" height="704" xmlns="http://www.w3.org/2000/svg">

 <g>
  <title>Layer 1</title>
  <g>
   <g>
    <path d="m200.783,502.83c53.451,53.404 140.123,53.404 193.575,0c53.457,-53.404 53.457,-139.992 0,-193.4c-53.458,-53.405 -140.124,-53.402 -193.579,0.006c-53.454,53.402 -53.456,139.987 0.004,193.394zm152.095,-151.958c30.548,30.521 30.548,80 0,110.515c-30.545,30.522 -80.068,30.522 -110.616,0c-30.547,-30.515 -30.547,-79.994 0,-110.515c30.548,-30.516 80.071,-30.516 110.616,0z" fill="#94C123"/>
    <path d="m270.216,378.792c15.104,-15.091 39.598,-15.091 54.707,0c15.105,15.097 15.105,39.565 0,54.657c-15.108,15.091 -39.601,15.097 -54.707,0c-15.109,-15.095 -15.106,-39.56 0,-54.657z" fill="#069339"/>
    <path d="m104.114,406.13c0.288,-52.192 23.64,-99.193 60.882,-132.396l-77.365,-77.31c-53.913,53.624 -87.354,127.761 -87.62,209.706l104.103,0z" fill="#0C3857"/>
    <path d="m104.088,407.102c0,-0.324 0.023,-0.646 0.026,-0.972l-104.103,0c0,0.324 -0.011,0.646 -0.011,0.972c0,81.84 33.107,155.95 86.664,209.711l77.324,-77.256c-36.885,-33.359 -59.9,-80.348 -59.9,-132.455z" fill="#B2B2B2"/>
    <g>
     <path d="m491.022,406.125c0,0.327 0.028,0.648 0.028,0.977c0,101.174 -86.627,183.192 -193.482,183.192c-51.819,0 -98.847,-19.33 -133.58,-50.739l-77.324,77.258c53.888,54.088 128.48,87.574 210.904,87.574c164.349,0 297.569,-133.101 297.569,-297.285c0,-0.326 -0.012,-0.647 -0.012,-0.973l-104.103,-0.004z" fill="#EF7E08"/>
    </g>
    <rect height="406.13" width="104.104" fill="#069339" y="0" x="491.022"/>
   </g>
  </g>
 </g>
</svg>