<?xml version="1.0" encoding="utf-8"?>
<!-- Generator: Adobe Illustrator 16.0.0, SVG Export Plug-In . SVG Version: 6.00 Build 0)  -->
<!DOCTYPE svg PUBLIC "-//W3C//DTD SVG 1.1//EN" "http://www.w3.org/Graphics/SVG/1.1/DTD/svg11.dtd">
<svg version="1.1" id="Ebene_1" xmlns="http://www.w3.org/2000/svg" xmlns:xlink="http://www.w3.org/1999/xlink" x="0px" y="0px"
	 width="1035px" height="1088px" viewBox="0 -638 1035 1088" enable-background="new 0 -638 1035 1088" xml:space="preserve">
<g>
	<g>
		<path fill="#93C01F" d="M422.855-135.17c53.452,53.405,140.124,53.405,193.576,0c53.457-53.404,53.457-139.992,0-193.4
			c-53.458-53.405-140.124-53.402-193.579,0.006C369.397-275.162,369.395-188.577,422.855-135.17z M574.95-287.128
			c30.548,30.52,30.548,80,0,110.515c-30.545,30.522-80.068,30.522-110.616,0c-30.547-30.515-30.547-79.995,0-110.515
			C494.882-317.644,544.405-317.644,574.95-287.128z"/>
		<path fill="#009238" d="M492.288-259.208c15.104-15.091,39.598-15.091,54.707,0c15.106,15.097,15.106,39.565,0,54.657
			c-15.108,15.091-39.6,15.097-54.707,0C477.179-219.646,477.182-244.111,492.288-259.208z"/>
		<path fill="#003758" d="M326.186-231.87c0.288-52.192,23.64-99.193,60.882-132.396l-77.365-77.31
			c-53.913,53.624-87.354,127.761-87.62,209.706H326.186z"/>
		<path fill="#B1B1B1" d="M326.16-230.898c0-0.325,0.023-0.646,0.026-0.972H222.083c0,0.324-0.011,0.646-0.011,0.972
			c0,81.839,33.107,155.95,86.664,209.711l77.324-77.257C349.175-131.802,326.16-178.791,326.16-230.898z"/>
		<g>
			<path fill="#EE7D00" d="M713.094-231.875c0,0.327,0.028,0.649,0.028,0.976c0,101.175-86.627,183.193-193.482,183.193
				c-51.82,0-98.847-19.33-133.58-50.739l-77.324,77.257c53.888,54.089,128.48,87.575,210.904,87.575
				c164.348,0,297.569-133.101,297.569-297.286c0-0.325-0.012-0.647-0.012-0.972L713.094-231.875z"/>
		</g>
		<rect x="713.094" y="-638" fill="#009238" width="104.104" height="406.13"/>
	</g>
	<g>
		<path fill="#003758" d="M62.586,383.607c0,17.601-4.212,31.478-12.633,41.64C41.529,435.405,27.728,443.659,8.552,450L0,427.479
			c5.23-2.593,9.281-5.048,12.154-7.377c2.875-2.334,5.098-4.95,6.664-7.862c1.567-2.914,2.645-7.408,3.234-13.491
			c0.589-6.081,0.885-14.885,0.885-26.404c0-12.812-0.228-25.205-0.682-37.178s-0.908-24.91-1.36-38.828
			c-0.456-13.912-0.68-25.072-0.68-33.484h42.371c0,9.963-0.357,21.064-1.067,33.294c-0.716,12.233-1.07,22.359-1.07,30.381
			c0,5.695,0.354,15.5,1.07,29.411C62.229,369.854,62.586,379.074,62.586,383.607z"/>
		<path fill="#003758" d="M152.578,363.051c4.404-15.534,9.588-33.401,15.55-53.596c5.958-20.195,10.817-35.729,14.577-46.601
			h41.985c-4.927,10.485-10.66,23.526-17.202,39.125c-6.545,15.601-13.801,33.5-21.77,53.694
			c-7.969,20.195-13.965,35.926-17.979,47.186h-39.652c-8.037-22.263-17.269-46.441-27.697-72.53
			c-10.433-26.081-19.86-48.575-28.281-67.475h48.009c2.721,7.896,6.25,18.416,10.594,31.551
			c4.34,13.144,8.649,26.445,12.926,39.907C147.914,347.778,150.893,357.359,152.578,363.051z"/>
		<path fill="#003758" d="M343.835,303.436c-5.313,6.089-11.631,13.726-18.949,22.917c-7.323,9.191-13.705,17.477-19.146,24.854
			c5.7,8.417,11.79,16.929,18.271,25.534c6.478,8.614,13.149,17.059,20.02,25.345h-45.678c-0.52-0.906-2.365-4.337-5.539-10.295
			c-3.177-5.951-6.705-12.685-10.594-20.194c-2.853,6.085-5.606,11.654-8.261,16.699c-2.657,5.05-5.28,9.646-7.872,13.79h-42.373
			c14.123-16.44,27.338-33.076,39.651-49.906c-5.315-7.769-11.34-16.051-18.077-24.856c-6.739-8.803-13.284-16.764-19.631-23.887
			h45.677c2.46,3.884,5.054,8.191,7.774,12.915c2.722,4.727,5.249,9.16,7.581,13.299c0.905-1.939,2.722-5.434,5.442-10.485
			c2.721-5.046,5.765-10.289,9.135-15.729H343.835z"/>
		<path fill="#003758" d="M530.427,402.085c0-13.72-0.164-25.731-0.486-36.023c-0.325-10.29-0.68-21.68-1.068-34.177
			c-0.39-12.49-0.583-22.621-0.583-30.391c-2.594,6.99-6.156,17.251-10.691,30.78c-4.537,13.528-8.488,25.795-11.856,36.795
			c-3.371,11.01-6.544,22.012-9.524,33.016h-36.346c-4.276-17.35-8.941-34.438-13.995-51.265
			c-5.053-16.83-10.496-33.271-16.327-49.326c-1.167,10.877-2.27,21.651-3.304,32.331c-1.039,10.684-1.913,22.139-2.624,34.374
			c-0.715,12.233-1.07,23.526-1.07,33.886h-34.598c3.11-23.173,5.375-40.714,6.803-52.626c1.425-11.908,2.721-25.534,3.887-40.874
			c1.166-15.341,1.75-30.588,1.75-45.73h53.062c5.959,17.476,11.305,34.144,16.035,50.001c4.729,15.86,8.972,31.685,12.732,47.479
			c4.145-15.662,8.97-32.397,14.479-50.198c5.506-17.798,10.788-33.561,15.841-47.281h51.121c0,22.784,0.611,45.241,1.846,67.383
			c1.229,22.134,3.076,46.085,5.538,71.848H530.427z"/>
		<path fill="#003758" d="M635.385,301.105c17.233,0,30.936,4.75,41.108,14.245c10.171,9.497,15.26,21.615,15.26,36.347
			c0,14.469-5.185,26.812-15.551,37.016c-10.368,10.208-23.974,15.312-40.817,15.312c-17.623,0-31.458-4.615-41.498-13.854
			c-10.041-9.241-15.062-21.288-15.062-36.151c0-14.729,5.15-27.229,15.452-37.503C604.579,306.245,618.282,301.105,635.385,301.105
			z M635.191,323.826c-5.83,0-9.883,2.584-12.148,7.744c-2.269,5.16-3.402,12.259-3.402,21.289c0,8.772,1.167,15.739,3.499,20.901
			c2.332,5.16,6.348,7.74,12.052,7.74c5.831,0,9.88-2.55,12.147-7.644c2.267-5.099,3.4-12.098,3.4-20.998
			c0-9.03-1.164-16.129-3.499-21.289C644.91,326.41,640.891,323.826,635.191,323.826z"/>
		<path fill="#003758" d="M703.996,253.917h40.43c0,3.109-0.197,8.61-0.583,16.509c-0.39,7.896-0.585,13.593-0.585,17.087v31.651
			c7.644-12.036,18.203-18.059,31.683-18.059c10.495,0,19.113,3.914,25.85,11.729c6.74,7.815,10.108,18.957,10.108,33.433
			c0,16.671-5.541,30.461-16.618,41.381c-11.076,10.917-25.948,16.376-44.605,16.376c-10.24,0-19.213-0.711-26.921-2.138
			c-7.712-1.422-13.966-3.425-18.758-6.017c0-10.473,0.291-23.012,0.875-37.62c0.582-14.606,0.874-23.918,0.874-27.927
			c0-11.636-0.292-26.405-0.874-44.308C704.287,268.106,703.996,257.413,703.996,253.917z M756.085,330.04
			c-2.981,0-5.506,0.517-7.579,1.551c-2.074,1.029-3.825,2.832-5.248,5.412l-0.389,19.543c0,11.223,0.193,19.09,0.581,23.603
			c2.571,1.288,5.983,1.935,10.231,1.935c5.146,0,9.396-2.225,12.739-6.676c3.348-4.446,5.021-11.186,5.021-20.215
			c0-7.995-1.395-14.185-4.181-18.574C764.477,332.233,760.752,330.04,756.085,330.04z"/>
		<path fill="#003758" d="M843.552,293.34c-7.129,0-12.703-1.885-16.716-5.657c-4.019-3.775-6.023-8.652-6.023-14.636
			c0-5.592,2.005-10.338,6.023-14.241c4.013-3.9,9.587-5.858,16.716-5.858c6.867,0,12.277,1.923,16.229,5.757
			c3.951,3.838,5.928,8.62,5.928,14.343c0,5.722-1.977,10.536-5.928,14.439C855.829,291.389,850.419,293.34,843.552,293.34z
			 M863.379,402.085h-40.235c0-7.118,0.29-16.313,0.874-27.574c0.584-11.266,0.875-17.994,0.875-20.194
			c0-7.77-0.291-17.605-0.875-29.521c-0.584-11.909-0.874-19.027-0.874-21.36h40.235c0,7.641-0.29,17.415-0.88,29.323
			c-0.579,11.913-0.87,19.097-0.87,21.558c0,7.119,0.291,16.311,0.87,27.573C863.089,393.15,863.379,399.884,863.379,402.085z"/>
		<path fill="#003758" d="M919.158,402.085h-40.233c0-10.876,0.292-24.663,0.872-41.365c0.584-16.699,0.877-26.796,0.877-30.292
			c0-11.649-0.293-26.439-0.877-44.371c-0.58-17.93-0.872-28.644-0.872-32.14h40.233c0,11.525-0.291,26.187-0.874,43.983
			c-0.583,17.803-0.875,28.644-0.875,32.527c0,10.875,0.292,24.73,0.875,41.557C918.867,388.814,919.158,398.852,919.158,402.085z"
			/>
		<path fill="#003758" d="M994.57,377.033c13.733,0,25.203-2.912,34.406-8.738l5.44,23.106c-6.481,4.535-13.407,7.769-20.797,9.711
			c-7.386,1.942-16.068,2.912-26.045,2.912c-16.846,0-30.388-4.521-40.622-13.563c-10.241-9.047-15.354-21.71-15.354-37.991
			c0-14.858,5.178-27.134,15.546-36.824c10.365-9.691,23.45-14.54,39.266-14.54c14.641,0,26.397,4.437,35.277,13.304
			c8.874,8.868,13.312,21.394,13.312,37.573l-0.195,7.964h-65.697c1.169,5.89,3.697,10.209,7.582,12.961
			C980.578,375.659,986.538,377.033,994.57,377.033z M969.107,339.361h29.35c0-5.177-1.295-9.321-3.887-12.429
			c-2.593-3.106-6.091-4.66-10.493-4.66c-4.536,0-8.034,1.554-10.496,4.66C971.118,330.04,969.626,334.185,969.107,339.361z"/>
	</g>
</g>
</svg>
