<?xml version="1.0" encoding="UTF-8"?>
<svg width="1035" height="1088" viewBox="0 -638 1035 1088" xmlns="http://www.w3.org/2000/svg">

    <path
        d="m422.86-135.17c53.452 53.405 140.12 53.405 193.58 0 53.457-53.404 53.457-139.99 0-193.4-53.458-53.405-140.12-53.402-193.58 6e-3 -53.455 53.402-53.457 139.99 3e-3 193.39zm152.1-151.96c30.548 30.52 30.548 80 0 110.52-30.545 30.522-80.068 30.522-110.62 0-30.547-30.515-30.547-79.995 0-110.52 30.548-30.516 80.071-30.516 110.62 0z"
        fill="#93C01F" />
    <path
        d="m492.29-259.21c15.104-15.091 39.598-15.091 54.707 0 15.106 15.097 15.106 39.565 0 54.657-15.108 15.091-39.6 15.097-54.707 0-15.109-15.095-15.106-39.56 0-54.657z"
        fill="#009238" />
    <path
        d="m326.19-231.87c0.288-52.192 23.64-99.193 60.882-132.4l-77.365-77.31c-53.913 53.624-87.354 127.76-87.62 209.71h104.1z"
        fill="#003758" />
    <path
        d="m326.16-230.9c0-0.325 0.023-0.646 0.026-0.972h-104.1c0 0.324-0.011 0.646-0.011 0.972 0 81.839 33.107 155.95 86.664 209.71l77.324-77.257c-36.885-33.358-59.9-80.347-59.9-132.45z"
        fill="#B1B1B1" />

    <path
        d="m713.09-231.88c0 0.327 0.028 0.649 0.028 0.976 0 101.18-86.627 183.19-193.48 183.19-51.82 0-98.847-19.33-133.58-50.739l-77.324 77.257c53.888 54.089 128.48 87.575 210.9 87.575 164.35 0 297.57-133.1 297.57-297.29 0-0.325-0.012-0.647-0.012-0.972l-104.1-4e-3z"
        fill="#EE7D00" />

    <rect x="713.09" y="-638" width="104.1" height="406.13" fill="#009238" />

    <g fill="#003758">
        <path
            d="m62.586 383.61c0 17.601-4.212 31.478-12.633 41.64-8.424 10.158-22.225 18.412-41.401 24.753l-8.552-22.521c5.23-2.593 9.281-5.048 12.154-7.377 2.875-2.334 5.098-4.95 6.664-7.862 1.567-2.914 2.645-7.408 3.234-13.491 0.589-6.081 0.885-14.885 0.885-26.404 0-12.812-0.228-25.205-0.682-37.178s-0.908-24.91-1.36-38.828c-0.456-13.912-0.68-25.072-0.68-33.484h42.371c0 9.963-0.357 21.064-1.067 33.294-0.716 12.233-1.07 22.359-1.07 30.381 0 5.695 0.354 15.5 1.07 29.411 0.71 13.913 1.067 23.133 1.067 27.666z" />
        <path
            d="m152.58 363.05c4.404-15.534 9.588-33.401 15.55-53.596 5.958-20.195 10.817-35.729 14.577-46.601h41.985c-4.927 10.485-10.66 23.526-17.202 39.125-6.545 15.601-13.801 33.5-21.77 53.694-7.969 20.195-13.965 35.926-17.979 47.186h-39.652c-8.037-22.263-17.269-46.441-27.697-72.53-10.433-26.081-19.86-48.575-28.281-67.475h48.009c2.721 7.896 6.25 18.416 10.594 31.551 4.34 13.144 8.649 26.445 12.926 39.907 4.276 13.466 7.255 23.047 8.94 28.739z" />
        <path
            d="m343.84 303.44c-5.313 6.089-11.631 13.726-18.949 22.917-7.323 9.191-13.705 17.477-19.146 24.854 5.7 8.417 11.79 16.929 18.271 25.534 6.478 8.614 13.149 17.059 20.02 25.345h-45.678c-0.52-0.906-2.365-4.337-5.539-10.295-3.177-5.951-6.705-12.685-10.594-20.194-2.853 6.085-5.606 11.654-8.261 16.699-2.657 5.05-5.28 9.646-7.872 13.79h-42.373c14.123-16.44 27.338-33.076 39.651-49.906-5.315-7.769-11.34-16.051-18.077-24.856-6.739-8.803-13.284-16.764-19.631-23.887h45.677c2.46 3.884 5.054 8.191 7.774 12.915 2.722 4.727 5.249 9.16 7.581 13.299 0.905-1.939 2.722-5.434 5.442-10.485 2.721-5.046 5.765-10.289 9.135-15.729h42.569z" />
        <path
            d="m530.43 402.08c0-13.72-0.164-25.731-0.486-36.023-0.325-10.29-0.68-21.68-1.068-34.177-0.39-12.49-0.583-22.621-0.583-30.391-2.594 6.99-6.156 17.251-10.691 30.78-4.537 13.528-8.488 25.795-11.856 36.795-3.371 11.01-6.544 22.012-9.524 33.016h-36.346c-4.276-17.35-8.941-34.438-13.995-51.265-5.053-16.83-10.496-33.271-16.327-49.326-1.167 10.877-2.27 21.651-3.304 32.331-1.039 10.684-1.913 22.139-2.624 34.374-0.715 12.233-1.07 23.526-1.07 33.886h-34.598c3.11-23.173 5.375-40.714 6.803-52.626 1.425-11.908 2.721-25.534 3.887-40.874 1.166-15.341 1.75-30.588 1.75-45.73h53.062c5.959 17.476 11.305 34.144 16.035 50.001 4.729 15.86 8.972 31.685 12.732 47.479 4.145-15.662 8.97-32.397 14.479-50.198 5.506-17.798 10.788-33.561 15.841-47.281h51.121c0 22.784 0.611 45.241 1.846 67.383 1.229 22.134 3.076 46.085 5.538 71.848h-40.622z" />
        <path
            d="m635.38 301.1c17.233 0 30.936 4.75 41.108 14.245 10.171 9.497 15.26 21.615 15.26 36.347 0 14.469-5.185 26.812-15.551 37.016-10.368 10.208-23.974 15.312-40.817 15.312-17.623 0-31.458-4.615-41.498-13.854-10.041-9.241-15.062-21.288-15.062-36.151 0-14.729 5.15-27.229 15.452-37.503 10.302-10.272 24.005-15.412 41.108-15.412zm-0.194 22.721c-5.83 0-9.883 2.584-12.148 7.744-2.269 5.16-3.402 12.259-3.402 21.289 0 8.772 1.167 15.739 3.499 20.901 2.332 5.16 6.348 7.74 12.052 7.74 5.831 0 9.88-2.55 12.147-7.644 2.267-5.099 3.4-12.098 3.4-20.998 0-9.03-1.164-16.129-3.499-21.289-2.33-5.159-6.349-7.743-12.049-7.743z" />
        <path
            d="m704 253.92h40.43c0 3.109-0.197 8.61-0.583 16.509-0.39 7.896-0.585 13.593-0.585 17.087v31.651c7.644-12.036 18.203-18.059 31.683-18.059 10.495 0 19.113 3.914 25.85 11.729 6.74 7.815 10.108 18.957 10.108 33.433 0 16.671-5.541 30.461-16.618 41.381-11.076 10.917-25.948 16.376-44.605 16.376-10.24 0-19.213-0.711-26.921-2.138-7.712-1.422-13.966-3.425-18.758-6.017 0-10.473 0.291-23.012 0.875-37.62 0.582-14.606 0.874-23.918 0.874-27.927 0-11.636-0.292-26.405-0.874-44.308-0.585-17.908-0.876-28.601-0.876-32.097zm52.089 76.123c-2.981 0-5.506 0.517-7.579 1.551-2.074 1.029-3.825 2.832-5.248 5.412l-0.389 19.543c0 11.223 0.193 19.09 0.581 23.603 2.571 1.288 5.983 1.935 10.231 1.935 5.146 0 9.396-2.225 12.739-6.676 3.348-4.446 5.021-11.186 5.021-20.215 0-7.995-1.395-14.185-4.181-18.574-2.783-4.386-6.508-6.579-11.175-6.579z" />
        <path
            d="m843.55 293.34c-7.129 0-12.703-1.885-16.716-5.657-4.019-3.775-6.023-8.652-6.023-14.636 0-5.592 2.005-10.338 6.023-14.241 4.013-3.9 9.587-5.858 16.716-5.858 6.867 0 12.277 1.923 16.229 5.757 3.951 3.838 5.928 8.62 5.928 14.343 0 5.722-1.977 10.536-5.928 14.439-3.952 3.902-9.362 5.853-16.229 5.853zm19.827 108.74h-40.235c0-7.118 0.29-16.313 0.874-27.574 0.584-11.266 0.875-17.994 0.875-20.194 0-7.77-0.291-17.605-0.875-29.521-0.584-11.909-0.874-19.027-0.874-21.36h40.235c0 7.641-0.29 17.415-0.88 29.323-0.579 11.913-0.87 19.097-0.87 21.558 0 7.119 0.291 16.311 0.87 27.573 0.59 11.26 0.88 17.994 0.88 20.195z" />
        <path
            d="m919.16 402.08h-40.233c0-10.876 0.292-24.663 0.872-41.365 0.584-16.699 0.877-26.796 0.877-30.292 0-11.649-0.293-26.439-0.877-44.371-0.58-17.93-0.872-28.644-0.872-32.14h40.233c0 11.525-0.291 26.187-0.874 43.983-0.583 17.803-0.875 28.644-0.875 32.527 0 10.875 0.292 24.73 0.875 41.557 0.583 16.83 0.874 26.868 0.874 30.101z" />
        <path
            d="m994.57 377.03c13.733 0 25.203-2.912 34.406-8.738l5.44 23.106c-6.481 4.535-13.407 7.769-20.797 9.711-7.386 1.942-16.068 2.912-26.045 2.912-16.846 0-30.388-4.521-40.622-13.563-10.241-9.047-15.354-21.71-15.354-37.991 0-14.858 5.178-27.134 15.546-36.824 10.365-9.691 23.45-14.54 39.266-14.54 14.641 0 26.397 4.437 35.277 13.304 8.874 8.868 13.312 21.394 13.312 37.573l-0.195 7.964h-65.697c1.169 5.89 3.697 10.209 7.582 12.961 3.889 2.751 9.849 4.125 17.881 4.125zm-25.463-37.672h29.35c0-5.177-1.295-9.321-3.887-12.429-2.593-3.106-6.091-4.66-10.493-4.66-4.536 0-8.034 1.554-10.496 4.66-2.463 3.108-3.955 7.253-4.474 12.429z" />
    </g>

</svg>
