<?xml version="1.0" encoding="utf-8"?><!-- Generator: Adobe Illustrator 16.0.0, SVG Export Plug-In . SVG Version: 6.00 Build 0)  -->
<!DOCTYPE svg PUBLIC "-//W3C//DTD SVG 1.1//EN" "http://www.w3.org/Graphics/SVG/1.1/DTD/svg11.dtd">
<svg enable-background="new 0 0 1536 1536" height="1536px" id="Ebene_1" version="1.1" viewBox="0 0 1536 1536"
	width="1536px" x="0px" xmlns="http://www.w3.org/2000/svg" y="0px" xml:space="preserve">
<rect fill="#EF7D00" height="1536" width="1536" />
	<g>
	<path d="M1536,270.303C1484.228,937.296,942.854,1480.161,277.014,1536l1257.954-0.749L1536,270.303z" fill="#EC6608" />
</g>
	<g>
	<path d="M1309.447,253.363c-45.633,54.191-106.748,130.494-183.262,228.895
		c-76.547,98.406-141.445,184.225-194.679,257.429c61.796,88.416,110.531,157.596,146.191,207.51
		c35.644,49.914,74.622,104.109,116.937,162.578c42.298,58.468,83.434,113.875,123.359,166.146H932.934L751.808,976.427
		c-55.149,100.799-112.655,200.627-172.559,299.493h-367.96c64.649-77.941,135.007-165.432,211.082-262.406
		c76.049-96.982,139.272-180.632,189.676-251.007c-54.196-77.016-117.659-164.951-190.398-263.846
		c-72.73-98.87-135.256-180.632-187.535-245.298h386.495c61.795,91.27,120.264,182.544,175.426,273.823
		c38.016-75.1,66.524-130.967,85.558-167.573c19-36.59,38.514-72.026,58.477-106.25H1309.447z" fill="#FFFFFF" />
</g>
</svg>
